<svg width="1197" height="495" viewBox="0 0 1197 495" fill="none" xmlns="http://www.w3.org/2000/svg">
<g clip-path="url(#clip0_561_251)">
<path d="M587.809 71.0589C588.845 62.2402 590.207 57.2012 596.992 47.6854C609.054 33.3345 618.273 31.8166 634.122 29.2069L634.278 29.1813C656.539 27.9291 667.113 38.7811 672.4 50.7461C677.686 62.7112 676.906 83.7196 675.321 94.989C673.737 106.258 667.391 135.789 631.357 164.867C641.235 168.346 642.118 167.793 654.035 169.562C665.443 157.458 671.963 148.513 688.399 128.936C704.835 109.36 714.187 82.1892 716.782 65.4938C719.376 48.7985 719.982 29.1813 706.208 14.9901C692.434 0.79902 665.304 -1.56612 648.609 0.799027C631.913 3.16417 602.696 14.9901 582.383 31.2682C562.071 47.5462 552.61 65.4938 545.097 89.7021C537.584 113.91 541.91 133.769 551.219 158.571C567.027 191.145 586.418 213.248 603.253 224.1C620.087 234.952 631.913 240.796 650.417 271.682C673.234 235.648 682.233 222.068 699.808 201.561C688.399 187.649 673.652 179.768 644.713 175.823C615.774 171.877 606.456 162.55 601.027 162.327C595.597 162.105 589.34 162.049 587.392 161.492C585.444 160.936 584.903 160.857 583.357 157.458C581.69 151.448 583.357 142.71 583.357 141.458C583.357 140.206 580.714 138.536 580.714 136.867C580.714 135.197 581.603 134.206 583.496 133.249C583.496 133.249 579.183 130.884 579.183 128.936C579.183 126.989 581.131 119.615 580.714 117.945C580.297 116.276 570.418 114.189 572.227 110.85C574.036 107.511 588.151 90.4317 589.896 86.9196C591.642 83.4074 588.056 79.4364 587.809 71.0589Z" fill="url(#paint0_linear_561_251)" style=""/>
<path d="M574.314 215.196C542.15 234.061 520.699 244.997 493.759 252.483L478.176 285.456C493.759 284.343 547.184 258.604 589.062 227.996L574.314 215.196Z" fill="url(#paint1_linear_561_251)" style=""/>
<path d="M427.007 403.456L407.769 335.29H421.05L433.331 385.383H433.964L447.078 335.29H459.16L472.307 385.416H472.906L485.188 335.29H498.468L479.23 403.456H467.048L453.402 355.627H452.869L439.189 403.456H427.007ZM501.407 403.456V335.29H545.741V345.642H513.755V364.148H543.445V374.499H513.755V393.105H546.007V403.456H501.407ZM552.715 403.456V335.29H578.81C583.736 335.29 587.83 336.067 591.092 337.62C594.376 339.151 596.828 341.248 598.448 343.911C600.09 346.574 600.911 349.591 600.911 352.964C600.911 355.738 600.378 358.112 599.313 360.087C598.248 362.04 596.817 363.626 595.019 364.847C593.222 366.067 591.214 366.943 588.995 367.476V368.142C591.414 368.275 593.733 369.018 595.951 370.372C598.193 371.703 600.023 373.589 601.443 376.03C602.863 378.471 603.573 381.422 603.573 384.884C603.573 388.412 602.719 391.585 601.011 394.403C599.302 397.199 596.728 399.406 593.289 401.026C589.849 402.646 585.522 403.456 580.308 403.456H552.715ZM565.064 393.138H578.344C582.826 393.138 586.055 392.284 588.03 390.575C590.027 388.844 591.025 386.625 591.025 383.918C591.025 381.899 590.526 380.08 589.528 378.46C588.529 376.818 587.109 375.531 585.267 374.599C583.426 373.645 581.229 373.168 578.677 373.168H565.064V393.138ZM565.064 364.281H577.279C579.409 364.281 581.329 363.892 583.037 363.116C584.746 362.317 586.088 361.196 587.065 359.754C588.063 358.29 588.562 356.559 588.562 354.562C588.562 351.921 587.63 349.747 585.767 348.038C583.925 346.33 581.184 345.475 577.545 345.475H565.064V364.281ZM645.737 354.029C645.427 351.122 644.118 348.859 641.81 347.239C639.524 345.62 636.551 344.81 632.89 344.81C630.316 344.81 628.108 345.198 626.266 345.975C624.424 346.751 623.015 347.805 622.039 349.137C621.063 350.468 620.564 351.988 620.541 353.696C620.541 355.117 620.863 356.348 621.507 357.391C622.172 358.434 623.071 359.321 624.203 360.054C625.334 360.764 626.588 361.363 627.964 361.851C629.339 362.339 630.726 362.75 632.124 363.083L638.515 364.68C641.089 365.279 643.563 366.089 645.937 367.11C648.334 368.131 650.475 369.418 652.361 370.971C654.269 372.524 655.778 374.399 656.888 376.596C657.997 378.793 658.552 381.367 658.552 384.318C658.552 388.312 657.531 391.829 655.49 394.869C653.448 397.887 650.497 400.25 646.636 401.958C642.797 403.645 638.149 404.488 632.69 404.488C627.387 404.488 622.782 403.667 618.877 402.025C614.994 400.383 611.954 397.986 609.757 394.835C607.583 391.685 606.407 387.846 606.229 383.319H618.378C618.555 385.693 619.288 387.668 620.575 389.244C621.862 390.819 623.537 391.995 625.601 392.772C627.686 393.549 630.016 393.937 632.59 393.937C635.275 393.937 637.627 393.537 639.646 392.739C641.688 391.918 643.285 390.786 644.439 389.344C645.593 387.879 646.181 386.171 646.203 384.218C646.181 382.443 645.66 380.978 644.639 379.824C643.618 378.648 642.187 377.672 640.345 376.895C638.526 376.097 636.396 375.387 633.955 374.765L626.2 372.768C620.586 371.326 616.148 369.14 612.886 366.211C609.646 363.26 608.027 359.344 608.027 354.462C608.027 350.446 609.114 346.929 611.288 343.911C613.485 340.893 616.47 338.552 620.242 336.888C624.014 335.202 628.285 334.358 633.056 334.358C637.893 334.358 642.132 335.202 645.771 336.888C649.432 338.552 652.305 340.871 654.391 343.844C656.477 346.796 657.553 350.191 657.62 354.029H645.737ZM676.285 335.29V403.456H663.937V335.29H676.285ZM681.038 345.642V335.29H735.424V345.642H714.355V403.456H702.107V345.642H681.038ZM740.285 403.456V335.29H784.619V345.642H752.633V364.148H782.322V374.499H752.633V393.105H784.885V403.456H740.285ZM333.685 486.456V418.29H359.247C364.484 418.29 368.878 419.2 372.428 421.02C376 422.839 378.696 425.391 380.516 428.675C382.358 431.937 383.278 435.742 383.278 440.091C383.278 444.463 382.347 448.257 380.483 451.475C378.641 454.67 375.923 457.144 372.328 458.897C368.733 460.628 364.318 461.493 359.081 461.493H340.875V451.242H357.417C360.479 451.242 362.986 450.82 364.939 449.977C366.892 449.111 368.334 447.858 369.266 446.216C370.22 444.551 370.697 442.51 370.697 440.091C370.697 437.673 370.22 435.609 369.266 433.901C368.312 432.17 366.858 430.861 364.906 429.973C362.953 429.063 360.435 428.608 357.35 428.608H346.034V486.456H333.685ZM368.9 455.568L385.775 486.456H371.995L355.42 455.568H368.9ZM389.021 486.456V418.29H433.356V428.642H401.37V447.148H431.059V457.499H401.37V476.105H433.622V486.456H389.021ZM440.33 486.456V418.29H465.892C471.129 418.29 475.522 419.267 479.073 421.219C482.645 423.172 485.341 425.857 487.161 429.274C489.002 432.669 489.923 436.53 489.923 440.857C489.923 445.228 489.002 449.111 487.161 452.506C485.319 455.901 482.601 458.575 479.006 460.528C475.411 462.458 470.985 463.424 465.726 463.424H448.784V453.272H464.061C467.124 453.272 469.631 452.739 471.584 451.674C473.536 450.609 474.979 449.145 475.911 447.281C476.865 445.417 477.342 443.276 477.342 440.857C477.342 438.438 476.865 436.308 475.911 434.466C474.979 432.625 473.525 431.193 471.55 430.173C469.598 429.13 467.079 428.608 463.995 428.608H452.678V486.456H440.33ZM555.935 452.373C555.935 459.718 554.559 466.009 551.808 471.245C549.079 476.46 545.351 480.454 540.624 483.228C535.92 486.001 530.584 487.388 524.615 487.388C518.646 487.388 513.298 486.001 508.572 483.228C503.868 480.432 500.14 476.426 497.388 471.212C494.659 465.975 493.294 459.696 493.294 452.373C493.294 445.029 494.659 438.749 497.388 433.534C500.14 428.298 503.868 424.293 508.572 421.519C513.298 418.745 518.646 417.358 524.615 417.358C530.584 417.358 535.92 418.745 540.624 421.519C545.351 424.293 549.079 428.298 551.808 433.534C554.559 438.749 555.935 445.029 555.935 452.373ZM543.52 452.373C543.52 447.203 542.71 442.843 541.09 439.293C539.493 435.72 537.274 433.024 534.434 431.205C531.593 429.363 528.32 428.442 524.615 428.442C520.909 428.442 517.636 429.363 514.796 431.205C511.956 433.024 509.726 435.72 508.106 439.293C506.508 442.843 505.709 447.203 505.709 452.373C505.709 457.543 506.508 461.915 508.106 465.487C509.726 469.037 511.956 471.733 514.796 473.575C517.636 475.395 520.909 476.304 524.615 476.304C528.32 476.304 531.593 475.395 534.434 473.575C537.274 471.733 539.493 469.037 541.09 465.487C542.71 461.915 543.52 457.543 543.52 452.373ZM599.031 437.029C598.72 434.122 597.411 431.859 595.103 430.239C592.818 428.62 589.844 427.81 586.183 427.81C583.609 427.81 581.401 428.198 579.56 428.975C577.718 429.751 576.309 430.805 575.333 432.137C574.356 433.468 573.857 434.988 573.835 436.696C573.835 438.117 574.157 439.348 574.8 440.391C575.466 441.434 576.364 442.321 577.496 443.054C578.628 443.764 579.881 444.363 581.257 444.851C582.633 445.339 584.02 445.75 585.418 446.083L591.808 447.68C594.382 448.279 596.856 449.089 599.231 450.11C601.627 451.131 603.768 452.418 605.654 453.971C607.563 455.524 609.072 457.399 610.181 459.596C611.29 461.793 611.845 464.367 611.845 467.318C611.845 471.312 610.824 474.829 608.783 477.869C606.742 480.887 603.79 483.25 599.93 484.958C596.091 486.645 591.442 487.488 585.984 487.488C580.68 487.488 576.076 486.667 572.171 485.025C568.288 483.383 565.248 480.986 563.051 477.835C560.876 474.685 559.7 470.846 559.523 466.319H571.671C571.849 468.693 572.581 470.668 573.868 472.244C575.155 473.819 576.83 474.995 578.894 475.772C580.98 476.549 583.31 476.937 585.884 476.937C588.569 476.937 590.921 476.537 592.94 475.739C594.981 474.918 596.579 473.786 597.733 472.344C598.887 470.879 599.475 469.171 599.497 467.218C599.475 465.443 598.953 463.978 597.932 462.824C596.912 461.648 595.481 460.672 593.639 459.895C591.819 459.097 589.689 458.387 587.248 457.765L579.493 455.768C573.879 454.326 569.441 452.14 566.18 449.211C562.94 446.26 561.32 442.344 561.32 437.462C561.32 433.446 562.407 429.929 564.582 426.911C566.779 423.893 569.763 421.552 573.535 419.888C577.307 418.202 581.579 417.358 586.35 417.358C591.187 417.358 595.425 418.202 599.064 419.888C602.725 421.552 605.599 423.871 607.685 426.844C609.77 429.796 610.847 433.191 610.913 437.029H599.031ZM629.579 418.29V486.456H617.23V418.29H629.579ZM634.331 428.642V418.29H688.717V428.642H667.649V486.456H655.4V428.642H634.331ZM751.467 452.373C751.467 459.718 750.092 466.009 747.34 471.245C744.611 476.46 740.883 480.454 736.157 483.228C731.453 486.001 726.116 487.388 720.147 487.388C714.178 487.388 708.831 486.001 704.104 483.228C699.4 480.432 695.672 476.426 692.921 471.212C690.191 465.975 688.827 459.696 688.827 452.373C688.827 445.029 690.191 438.749 692.921 433.534C695.672 428.298 699.4 424.293 704.104 421.519C708.831 418.745 714.178 417.358 720.147 417.358C726.116 417.358 731.453 418.745 736.157 421.519C740.883 424.293 744.611 428.298 747.34 433.534C750.092 438.749 751.467 445.029 751.467 452.373ZM739.052 452.373C739.052 447.203 738.243 442.843 736.623 439.293C735.025 435.72 732.806 433.024 729.966 431.205C727.126 429.363 723.853 428.442 720.147 428.442C716.441 428.442 713.169 429.363 710.328 431.205C707.488 433.024 705.258 435.72 703.638 439.293C702.041 442.843 701.242 447.203 701.242 452.373C701.242 457.543 702.041 461.915 703.638 465.487C705.258 469.037 707.488 471.733 710.328 473.575C713.169 475.395 716.441 476.304 720.147 476.304C723.853 476.304 727.126 475.395 729.966 473.575C732.806 471.733 735.025 469.037 736.623 465.487C738.243 461.915 739.052 457.543 739.052 452.373ZM757.518 486.456V418.29H783.08C788.317 418.29 792.71 419.2 796.261 421.02C799.833 422.839 802.529 425.391 804.349 428.675C806.19 431.937 807.111 435.742 807.111 440.091C807.111 444.463 806.179 448.257 804.315 451.475C802.474 454.67 799.755 457.144 796.161 458.897C792.566 460.628 788.15 461.493 782.914 461.493H764.707V451.242H781.25C784.312 451.242 786.819 450.82 788.772 449.977C790.724 449.111 792.167 447.858 793.099 446.216C794.053 444.551 794.53 442.51 794.53 440.091C794.53 437.673 794.053 435.609 793.099 433.901C792.145 432.17 790.691 430.861 788.738 429.973C786.786 429.063 784.267 428.608 781.183 428.608H769.866V486.456H757.518ZM792.733 455.568L809.608 486.456H795.828L779.253 455.568H792.733ZM805.54 418.29H819.486L836.161 448.446H836.827L853.502 418.29H867.448L842.652 461.027V486.456H830.337V461.027L805.54 418.29Z" fill="#2D6AD5" style="fill:#2D6AD5;fill:color(display-p3 0.1755 0.4169 0.8337);fill-opacity:1;"/>
</g>
<defs>
<linearGradient id="paint0_linear_561_251" x1="645.281" y1="85.6368" x2="511.029" y2="285.363" gradientUnits="userSpaceOnUse">
<stop offset="0.0205961" stop-color="#2D6AD5" style="stop-color:#2D6AD5;stop-color:color(display-p3 0.1755 0.4169 0.8337);stop-opacity:1;"/>
<stop offset="1" stop-color="#90D4ED" style="stop-color:#90D4ED;stop-color:color(display-p3 0.5647 0.8314 0.9294);stop-opacity:1;"/>
</linearGradient>
<linearGradient id="paint1_linear_561_251" x1="645.281" y1="85.6368" x2="511.029" y2="285.363" gradientUnits="userSpaceOnUse">
<stop offset="0.0205961" stop-color="#2D6AD5" style="stop-color:#2D6AD5;stop-color:color(display-p3 0.1755 0.4169 0.8337);stop-opacity:1;"/>
<stop offset="1" stop-color="#90D4ED" style="stop-color:#90D4ED;stop-color:color(display-p3 0.5647 0.8314 0.9294);stop-opacity:1;"/>
</linearGradient>
<clipPath id="clip0_561_251">
<rect width="1196.43" height="494.178" fill="white" style="fill:white;fill-opacity:1;"/>
</clipPath>
</defs>
</svg>
